# MagicaVoxel @ ephtracy

# material
mtllib Tollhouse.mtl
usemtl palette

# normals
vn -1 0 0
vn 1 0 0
vn 0 0 1
vn 0 0 -1
vn 0 -1 0
vn 0 1 0

# texcoords
vt 0.0214844 0.5
vt 0.369141 0.5
vt 0.560547 0.5
vt 0.845703 0.5
vt 0.853516 0.5
vt 0.958984 0.5
vt 0.966797 0.5

# verts
v -14.5 5 19.5
v -14.5 5 17.5
v -14.5 7 19.5
v -14.5 7 17.5
v -2.5 0 19.5
v -2.5 0 17.5
v -2.5 5 19.5
v -2.5 5 17.5
v -2.5 7 19.5
v -2.5 7 17.5
v -2.5 8 19.5
v -2.5 8 17.5
v 0.5 13 19.5
v 0.5 13 12.5
v 0.5 14 19.5
v 0.5 14 12.5
v 1.5 0 19.5
v 1.5 0 12.5
v 1.5 1 19.5
v 1.5 1 12.5
v 1.5 8 18.5
v 1.5 8 13.5
v 1.5 13 20.5
v 1.5 13 19.5
v 1.5 13 18.5
v 1.5 13 13.5
v 1.5 13 12.5
v 1.5 13 11.5
v 1.5 14 20.5
v 1.5 14 19.5
v 1.5 14 12.5
v 1.5 14 11.5
v 1.5 15 19.5
v 1.5 15 18.5
v 1.5 15 13.5
v 1.5 15 12.5
v 1.5 16 18.5
v 1.5 16 17.5
v 1.5 16 14.5
v 1.5 16 13.5
v 1.5 17 17.5
v 1.5 17 14.5
v 7.5 1 18.5
v 7.5 1 13.5
v 7.5 2 18.5
v 7.5 2 13.5
v 7.5 13 18.5
v 7.5 13 13.5
v 7.5 14 18.5
v 7.5 14 13.5
v -0.5 0 19.5
v -0.5 0 17.5
v -0.5 8 19.5
v -0.5 8 17.5
v 2.5 1 18.5
v 2.5 1 13.5
v 2.5 8 18.5
v 2.5 8 13.5
v 2.5 13 18.5
v 2.5 13 13.5
v 2.5 14 18.5
v 2.5 14 13.5
v 8.5 0 19.5
v 8.5 0 12.5
v 8.5 1 19.5
v 8.5 1 12.5
v 8.5 2 18.5
v 8.5 2 13.5
v 8.5 13 20.5
v 8.5 13 19.5
v 8.5 13 18.5
v 8.5 13 13.5
v 8.5 13 12.5
v 8.5 13 11.5
v 8.5 14 20.5
v 8.5 14 19.5
v 8.5 14 12.5
v 8.5 14 11.5
v 8.5 15 19.5
v 8.5 15 18.5
v 8.5 15 13.5
v 8.5 15 12.5
v 8.5 16 18.5
v 8.5 16 17.5
v 8.5 16 14.5
v 8.5 16 13.5
v 8.5 17 17.5
v 8.5 17 14.5
v 1.5 13 20.5
v 1.5 14 20.5
v 8.5 13 20.5
v 8.5 14 20.5
v -14.5 5 19.5
v -14.5 7 19.5
v -13.5 5 19.5
v -13.5 7 19.5
v -12.5 5 19.5
v -12.5 7 19.5
v -11.5 5 19.5
v -11.5 7 19.5
v -10.5 5 19.5
v -10.5 7 19.5
v -9.5 5 19.5
v -9.5 7 19.5
v -8.5 5 19.5
v -8.5 7 19.5
v -7.5 5 19.5
v -7.5 7 19.5
v -6.5 5 19.5
v -6.5 7 19.5
v -5.5 5 19.5
v -5.5 7 19.5
v -4.5 5 19.5
v -4.5 7 19.5
v -3.5 5 19.5
v -3.5 7 19.5
v -2.5 0 19.5
v -2.5 5 19.5
v -2.5 7 19.5
v -2.5 8 19.5
v -0.5 0 19.5
v -0.5 8 19.5
v 0.5 13 19.5
v 0.5 14 19.5
v 1.5 0 19.5
v 1.5 1 19.5
v 1.5 13 19.5
v 1.5 14 19.5
v 1.5 15 19.5
v 2.5 8 19.5
v 2.5 13 19.5
v 7.5 8 19.5
v 7.5 13 19.5
v 8.5 0 19.5
v 8.5 1 19.5
v 8.5 13 19.5
v 8.5 14 19.5
v 8.5 15 19.5
v 1.5 15 18.5
v 1.5 16 18.5
v 8.5 15 18.5
v 8.5 16 18.5
v 1.5 16 17.5
v 1.5 17 17.5
v 8.5 16 17.5
v 8.5 17 17.5
v 2.5 1 13.5
v 2.5 8 13.5
v 2.5 13 13.5
v 2.5 14 13.5
v 7.5 1 13.5
v 7.5 2 13.5
v 7.5 8 13.5
v 7.5 13 13.5
v 7.5 14 13.5
v 8.5 2 13.5
v 8.5 13 13.5
v 2.5 1 18.5
v 2.5 8 18.5
v 2.5 13 18.5
v 2.5 14 18.5
v 7.5 1 18.5
v 7.5 2 18.5
v 7.5 8 18.5
v 7.5 13 18.5
v 7.5 14 18.5
v 8.5 2 18.5
v 8.5 13 18.5
v -14.5 5 17.5
v -14.5 7 17.5
v -13.5 5 17.5
v -13.5 7 17.5
v -12.5 5 17.5
v -12.5 7 17.5
v -11.5 5 17.5
v -11.5 7 17.5
v -10.5 5 17.5
v -10.5 7 17.5
v -9.5 5 17.5
v -9.5 7 17.5
v -8.5 5 17.5
v -8.5 7 17.5
v -7.5 5 17.5
v -7.5 7 17.5
v -6.5 5 17.5
v -6.5 7 17.5
v -5.5 5 17.5
v -5.5 7 17.5
v -4.5 5 17.5
v -4.5 7 17.5
v -3.5 5 17.5
v -3.5 7 17.5
v -2.5 0 17.5
v -2.5 5 17.5
v -2.5 7 17.5
v -2.5 8 17.5
v -0.5 0 17.5
v -0.5 8 17.5
v 1.5 16 14.5
v 1.5 17 14.5
v 8.5 16 14.5
v 8.5 17 14.5
v 1.5 15 13.5
v 1.5 16 13.5
v 8.5 15 13.5
v 8.5 16 13.5
v 0.5 13 12.5
v 0.5 14 12.5
v 1.5 0 12.5
v 1.5 1 12.5
v 1.5 13 12.5
v 1.5 14 12.5
v 1.5 15 12.5
v 2.5 8 12.5
v 2.5 13 12.5
v 7.5 8 12.5
v 7.5 13 12.5
v 8.5 0 12.5
v 8.5 1 12.5
v 8.5 13 12.5
v 8.5 14 12.5
v 8.5 15 12.5
v 1.5 13 11.5
v 1.5 14 11.5
v 8.5 13 11.5
v 8.5 14 11.5
v -2.5 0 19.5
v -0.5 0 19.5
v 1.5 0 19.5
v 8.5 0 19.5
v -2.5 0 17.5
v -0.5 0 17.5
v 1.5 0 12.5
v 8.5 0 12.5
v -14.5 5 19.5
v -13.5 5 19.5
v -12.5 5 19.5
v -11.5 5 19.5
v -10.5 5 19.5
v -9.5 5 19.5
v -8.5 5 19.5
v -7.5 5 19.5
v -6.5 5 19.5
v -5.5 5 19.5
v -4.5 5 19.5
v -3.5 5 19.5
v -2.5 5 19.5
v -14.5 5 17.5
v -13.5 5 17.5
v -12.5 5 17.5
v -11.5 5 17.5
v -10.5 5 17.5
v -9.5 5 17.5
v -8.5 5 17.5
v -7.5 5 17.5
v -6.5 5 17.5
v -5.5 5 17.5
v -4.5 5 17.5
v -3.5 5 17.5
v -2.5 5 17.5
v 1.5 13 20.5
v 8.5 13 20.5
v 0.5 13 19.5
v 1.5 13 19.5
v 2.5 13 19.5
v 7.5 13 19.5
v 8.5 13 19.5
v 1.5 13 18.5
v 7.5 13 18.5
v 8.5 13 18.5
v 1.5 13 13.5
v 7.5 13 13.5
v 8.5 13 13.5
v 0.5 13 12.5
v 1.5 13 12.5
v 2.5 13 12.5
v 7.5 13 12.5
v 8.5 13 12.5
v 1.5 13 11.5
v 8.5 13 11.5
v 2.5 14 18.5
v 7.5 14 18.5
v 2.5 14 13.5
v 7.5 14 13.5
v 2.5 1 18.5
v 7.5 1 18.5
v 2.5 1 13.5
v 7.5 1 13.5
v 7.5 2 18.5
v 8.5 2 18.5
v 7.5 2 13.5
v 8.5 2 13.5
v -14.5 7 19.5
v -13.5 7 19.5
v -12.5 7 19.5
v -11.5 7 19.5
v -10.5 7 19.5
v -9.5 7 19.5
v -8.5 7 19.5
v -7.5 7 19.5
v -6.5 7 19.5
v -5.5 7 19.5
v -4.5 7 19.5
v -3.5 7 19.5
v -2.5 7 19.5
v -14.5 7 17.5
v -13.5 7 17.5
v -12.5 7 17.5
v -11.5 7 17.5
v -10.5 7 17.5
v -9.5 7 17.5
v -8.5 7 17.5
v -7.5 7 17.5
v -6.5 7 17.5
v -5.5 7 17.5
v -4.5 7 17.5
v -3.5 7 17.5
v -2.5 7 17.5
v -2.5 8 19.5
v -0.5 8 19.5
v -2.5 8 17.5
v -0.5 8 17.5
v 1.5 14 20.5
v 8.5 14 20.5
v 0.5 14 19.5
v 1.5 14 19.5
v 8.5 14 19.5
v 0.5 14 12.5
v 1.5 14 12.5
v 8.5 14 12.5
v 1.5 14 11.5
v 8.5 14 11.5
v 1.5 15 19.5
v 8.5 15 19.5
v 1.5 15 18.5
v 8.5 15 18.5
v 1.5 15 13.5
v 8.5 15 13.5
v 1.5 15 12.5
v 8.5 15 12.5
v 1.5 16 18.5
v 8.5 16 18.5
v 1.5 16 17.5
v 8.5 16 17.5
v 1.5 16 14.5
v 8.5 16 14.5
v 1.5 16 13.5
v 8.5 16 13.5
v 1.5 17 17.5
v 8.5 17 17.5
v 1.5 17 14.5
v 8.5 17 14.5

# faces
f 3/6/1 2/6/1 1/6/1
f 4/6/1 2/6/1 3/6/1
f 7/1/1 6/1/1 5/1/1
f 8/1/1 6/1/1 7/1/1
f 11/1/1 10/1/1 9/1/1
f 12/1/1 10/1/1 11/1/1
f 15/3/1 14/3/1 13/3/1
f 16/3/1 14/3/1 15/3/1
f 19/7/1 18/7/1 17/7/1
f 20/7/1 18/7/1 19/7/1
f 21/2/1 20/2/1 19/2/1
f 22/2/1 20/2/1 21/2/1
f 24/2/1 21/2/1 19/2/1
f 25/6/1 22/6/1 21/6/1
f 25/2/1 21/2/1 24/2/1
f 26/2/1 20/2/1 22/2/1
f 26/6/1 22/6/1 25/6/1
f 27/2/1 20/2/1 26/2/1
f 29/3/1 24/3/1 23/3/1
f 30/3/1 24/3/1 29/3/1
f 31/3/1 28/3/1 27/3/1
f 32/3/1 28/3/1 31/3/1
f 33/5/1 31/5/1 30/5/1
f 34/5/1 31/5/1 33/5/1
f 35/5/1 31/5/1 34/5/1
f 36/5/1 31/5/1 35/5/1
f 37/5/1 35/5/1 34/5/1
f 38/5/1 35/5/1 37/5/1
f 39/5/1 35/5/1 38/5/1
f 40/5/1 35/5/1 39/5/1
f 41/5/1 39/5/1 38/5/1
f 42/5/1 39/5/1 41/5/1
f 45/2/1 44/2/1 43/2/1
f 46/2/1 44/2/1 45/2/1
f 49/2/1 48/2/1 47/2/1
f 50/2/1 48/2/1 49/2/1
f 51/1/2 52/1/2 53/1/2
f 53/1/2 52/1/2 54/1/2
f 55/2/2 56/2/2 57/2/2
f 57/2/2 56/2/2 58/2/2
f 57/6/2 58/6/2 59/6/2
f 59/6/2 58/6/2 60/6/2
f 59/2/2 60/2/2 61/2/2
f 61/2/2 60/2/2 62/2/2
f 63/7/2 64/7/2 65/7/2
f 65/7/2 64/7/2 66/7/2
f 65/2/2 66/2/2 67/2/2
f 67/2/2 66/2/2 68/2/2
f 65/2/2 67/2/2 70/2/2
f 70/2/2 67/2/2 71/2/2
f 68/2/2 66/2/2 72/2/2
f 72/2/2 66/2/2 73/2/2
f 69/3/2 70/3/2 75/3/2
f 72/2/2 73/2/2 76/2/2
f 75/3/2 70/3/2 76/3/2
f 70/2/2 71/2/2 76/2/2
f 71/2/2 72/2/2 76/2/2
f 73/3/2 74/3/2 77/3/2
f 76/2/2 73/2/2 77/2/2
f 77/3/2 74/3/2 78/3/2
f 76/5/2 77/5/2 79/5/2
f 79/5/2 77/5/2 80/5/2
f 80/5/2 77/5/2 81/5/2
f 81/5/2 77/5/2 82/5/2
f 80/5/2 81/5/2 83/5/2
f 83/5/2 81/5/2 84/5/2
f 84/5/2 81/5/2 85/5/2
f 85/5/2 81/5/2 86/5/2
f 84/5/2 85/5/2 87/5/2
f 87/5/2 85/5/2 88/5/2
f 91/3/3 90/3/3 89/3/3
f 92/3/3 90/3/3 91/3/3
f 95/6/3 94/6/3 93/6/3
f 96/6/3 94/6/3 95/6/3
f 97/4/3 96/4/3 95/4/3
f 98/4/3 96/4/3 97/4/3
f 99/6/3 98/6/3 97/6/3
f 100/6/3 98/6/3 99/6/3
f 101/4/3 100/4/3 99/4/3
f 102/4/3 100/4/3 101/4/3
f 103/6/3 102/6/3 101/6/3
f 104/6/3 102/6/3 103/6/3
f 105/4/3 104/4/3 103/4/3
f 106/4/3 104/4/3 105/4/3
f 107/6/3 106/6/3 105/6/3
f 108/6/3 106/6/3 107/6/3
f 109/4/3 108/4/3 107/4/3
f 110/4/3 108/4/3 109/4/3
f 111/6/3 110/6/3 109/6/3
f 112/6/3 110/6/3 111/6/3
f 113/4/3 112/4/3 111/4/3
f 114/4/3 112/4/3 113/4/3
f 115/6/3 114/6/3 113/6/3
f 116/6/3 114/6/3 115/6/3
f 118/4/3 116/4/3 115/4/3
f 119/4/3 116/4/3 118/4/3
f 121/1/3 119/1/3 118/1/3
f 121/1/3 120/1/3 119/1/3
f 121/1/3 118/1/3 117/1/3
f 122/1/3 120/1/3 121/1/3
f 127/3/3 124/3/3 123/3/3
f 128/3/3 124/3/3 127/3/3
f 130/2/3 127/2/3 126/2/3
f 131/2/3 127/2/3 130/2/3
f 132/2/3 130/2/3 126/2/3
f 132/6/3 131/6/3 130/6/3
f 133/6/3 131/6/3 132/6/3
f 134/7/3 126/7/3 125/7/3
f 135/2/3 132/2/3 126/2/3
f 135/7/3 126/7/3 134/7/3
f 135/2/3 133/2/3 132/2/3
f 136/2/3 133/2/3 135/2/3
f 137/5/3 129/5/3 128/5/3
f 138/5/3 129/5/3 137/5/3
f 141/5/3 140/5/3 139/5/3
f 142/5/3 140/5/3 141/5/3
f 145/5/3 144/5/3 143/5/3
f 146/5/3 144/5/3 145/5/3
f 151/2/3 148/2/3 147/2/3
f 152/2/3 148/2/3 151/2/3
f 153/6/3 149/6/3 148/6/3
f 153/2/3 148/2/3 152/2/3
f 154/2/3 150/2/3 149/2/3
f 154/6/3 149/6/3 153/6/3
f 155/2/3 150/2/3 154/2/3
f 156/2/3 153/2/3 152/2/3
f 156/2/3 154/2/3 153/2/3
f 157/2/3 154/2/3 156/2/3
f 158/2/4 159/2/4 162/2/4
f 162/2/4 159/2/4 163/2/4
f 159/6/4 160/6/4 164/6/4
f 163/2/4 159/2/4 164/2/4
f 160/2/4 161/2/4 165/2/4
f 164/6/4 160/6/4 165/6/4
f 165/2/4 161/2/4 166/2/4
f 163/2/4 164/2/4 167/2/4
f 164/2/4 165/2/4 167/2/4
f 167/2/4 165/2/4 168/2/4
f 169/6/4 170/6/4 171/6/4
f 171/6/4 170/6/4 172/6/4
f 171/4/4 172/4/4 173/4/4
f 173/4/4 172/4/4 174/4/4
f 173/6/4 174/6/4 175/6/4
f 175/6/4 174/6/4 176/6/4
f 175/4/4 176/4/4 177/4/4
f 177/4/4 176/4/4 178/4/4
f 177/6/4 178/6/4 179/6/4
f 179/6/4 178/6/4 180/6/4
f 179/4/4 180/4/4 181/4/4
f 181/4/4 180/4/4 182/4/4
f 181/6/4 182/6/4 183/6/4
f 183/6/4 182/6/4 184/6/4
f 183/4/4 184/4/4 185/4/4
f 185/4/4 184/4/4 186/4/4
f 185/6/4 186/6/4 187/6/4
f 187/6/4 186/6/4 188/6/4
f 187/4/4 188/4/4 189/4/4
f 189/4/4 188/4/4 190/4/4
f 189/6/4 190/6/4 191/6/4
f 191/6/4 190/6/4 192/6/4
f 191/4/4 192/4/4 194/4/4
f 194/4/4 192/4/4 195/4/4
f 194/1/4 195/1/4 197/1/4
f 195/1/4 196/1/4 197/1/4
f 193/1/4 194/1/4 197/1/4
f 197/1/4 196/1/4 198/1/4
f 199/5/4 200/5/4 201/5/4
f 201/5/4 200/5/4 202/5/4
f 203/5/4 204/5/4 205/5/4
f 205/5/4 204/5/4 206/5/4
f 207/3/4 208/3/4 211/3/4
f 211/3/4 208/3/4 212/3/4
f 210/2/4 211/2/4 214/2/4
f 214/2/4 211/2/4 215/2/4
f 210/2/4 214/2/4 216/2/4
f 214/6/4 215/6/4 216/6/4
f 216/6/4 215/6/4 217/6/4
f 209/7/4 210/7/4 218/7/4
f 210/2/4 216/2/4 219/2/4
f 218/7/4 210/7/4 219/7/4
f 216/2/4 217/2/4 219/2/4
f 219/2/4 217/2/4 220/2/4
f 212/5/4 213/5/4 221/5/4
f 221/5/4 213/5/4 222/5/4
f 223/3/4 224/3/4 225/3/4
f 225/3/4 224/3/4 226/3/4
f 231/1/5 228/1/5 227/1/5
f 232/1/5 228/1/5 231/1/5
f 233/7/5 230/7/5 229/7/5
f 234/7/5 230/7/5 233/7/5
f 248/6/5 236/6/5 235/6/5
f 249/4/5 237/4/5 236/4/5
f 249/6/5 236/6/5 248/6/5
f 250/6/5 238/6/5 237/6/5
f 250/4/5 237/4/5 249/4/5
f 251/4/5 239/4/5 238/4/5
f 251/6/5 238/6/5 250/6/5
f 252/6/5 240/6/5 239/6/5
f 252/4/5 239/4/5 251/4/5
f 253/4/5 241/4/5 240/4/5
f 253/6/5 240/6/5 252/6/5
f 254/6/5 242/6/5 241/6/5
f 254/4/5 241/4/5 253/4/5
f 255/4/5 243/4/5 242/4/5
f 255/6/5 242/6/5 254/6/5
f 256/6/5 244/6/5 243/6/5
f 256/4/5 243/4/5 255/4/5
f 257/4/5 245/4/5 244/4/5
f 257/6/5 244/6/5 256/6/5
f 258/6/5 246/6/5 245/6/5
f 258/4/5 245/4/5 257/4/5
f 259/4/5 247/4/5 246/4/5
f 259/6/5 246/6/5 258/6/5
f 260/4/5 247/4/5 259/4/5
f 264/3/5 262/3/5 261/3/5
f 265/3/5 262/3/5 264/3/5
f 266/3/5 262/3/5 265/3/5
f 267/3/5 262/3/5 266/3/5
f 268/3/5 264/3/5 263/3/5
f 271/3/5 268/3/5 263/3/5
f 272/2/5 270/2/5 269/2/5
f 273/2/5 270/2/5 272/2/5
f 274/3/5 271/3/5 263/3/5
f 275/3/5 271/3/5 274/3/5
f 279/3/5 278/3/5 277/3/5
f 279/3/5 277/3/5 276/3/5
f 279/3/5 276/3/5 275/3/5
f 280/3/5 278/3/5 279/3/5
f 283/5/5 282/5/5 281/5/5
f 284/5/5 282/5/5 283/5/5
f 285/7/6 286/7/6 287/7/6
f 287/7/6 286/7/6 288/7/6
f 289/2/6 290/2/6 291/2/6
f 291/2/6 290/2/6 292/2/6
f 293/6/6 294/6/6 306/6/6
f 294/4/6 295/4/6 307/4/6
f 306/6/6 294/6/6 307/6/6
f 295/6/6 296/6/6 308/6/6
f 307/4/6 295/4/6 308/4/6
f 296/4/6 297/4/6 309/4/6
f 308/6/6 296/6/6 309/6/6
f 297/6/6 298/6/6 310/6/6
f 309/4/6 297/4/6 310/4/6
f 298/4/6 299/4/6 311/4/6
f 310/6/6 298/6/6 311/6/6
f 299/6/6 300/6/6 312/6/6
f 311/4/6 299/4/6 312/4/6
f 300/4/6 301/4/6 313/4/6
f 312/6/6 300/6/6 313/6/6
f 301/6/6 302/6/6 314/6/6
f 313/4/6 301/4/6 314/4/6
f 302/4/6 303/4/6 315/4/6
f 314/6/6 302/6/6 315/6/6
f 303/6/6 304/6/6 316/6/6
f 315/4/6 303/4/6 316/4/6
f 304/4/6 305/4/6 317/4/6
f 316/6/6 304/6/6 317/6/6
f 317/4/6 305/4/6 318/4/6
f 319/1/6 320/1/6 321/1/6
f 321/1/6 320/1/6 322/1/6
f 323/3/6 324/3/6 326/3/6
f 326/3/6 324/3/6 327/3/6
f 325/3/6 326/3/6 328/3/6
f 328/3/6 326/3/6 329/3/6
f 329/3/6 330/3/6 331/3/6
f 331/3/6 330/3/6 332/3/6
f 333/5/6 334/5/6 335/5/6
f 335/5/6 334/5/6 336/5/6
f 337/5/6 338/5/6 339/5/6
f 339/5/6 338/5/6 340/5/6
f 341/5/6 342/5/6 343/5/6
f 343/5/6 342/5/6 344/5/6
f 345/5/6 346/5/6 347/5/6
f 347/5/6 346/5/6 348/5/6
f 349/5/6 350/5/6 351/5/6
f 351/5/6 350/5/6 352/5/6
